<?xml version="1.0" encoding="UTF-8" standalone="no"?>
<!DOCTYPE svg PUBLIC "-//W3C//DTD SVG 1.1//EN" "http://www.w3.org/Graphics/SVG/1.1/DTD/svg11.dtd">
<svg width="100%" height="100%" viewBox="0 0 200 200" version="1.1" xmlns="http://www.w3.org/2000/svg" xmlns:xlink="http://www.w3.org/1999/xlink" xml:space="preserve" xmlns:serif="http://www.serif.com/" style="fill-rule:evenodd;clip-rule:evenodd;stroke-linecap:round;stroke-linejoin:round;stroke-miterlimit:1.5;">
    <g transform="matrix(1.08314,0,0,1.1007,0.662007,0.576584)">
        <rect x="-0.611" y="-0.524" width="184.648" height="181.703"/>
    </g>
    <g id="Luchador-Mask" serif:id="Luchador Mask">
        <path d="M99.135,20.448C132.468,20.448 160.26,32.658 160.398,78.11C160.614,149.073 132.468,185.155 99.135,185.155C65.802,185.155 40.37,149.393 39.607,78.11C39.121,32.66 65.802,20.448 99.135,20.448ZM74.891,115.511C60.087,112.326 50.129,106.103 50.129,97.868C50.129,92.198 45.094,71.994 54.083,53.298C61.004,68.201 74.149,73.476 86.149,71.498C90.825,77.738 94.809,81.454 99.646,81.264C105.023,81.053 109.902,77.596 112.304,71.756C127.395,73.259 139.45,67.104 144.356,52.417C153.146,71.546 148.649,93.039 148.649,97.868C148.649,106.195 138.363,112.464 123.219,115.616C125.167,117.948 126.268,120.597 126.268,123.404C126.268,126.43 124.989,129.272 122.747,131.732C128.274,135.726 131.678,141.17 131.678,147.167C131.678,159.414 117.483,169.356 100,169.356C82.517,169.356 68.322,159.414 68.322,147.167C68.322,141.593 71.264,136.496 76.118,132.596C73.357,129.949 71.753,126.792 71.753,123.404C71.753,120.555 72.887,117.869 74.891,115.511ZM101.492,27.258L87.666,51.964L99.593,51.775L100.169,68.684L112.334,44.502L101.138,44.303L101.492,27.258Z" style="fill:white;stroke:black;stroke-width:0.5px;"/>
        <g transform="matrix(0.713271,0,0,0.695219,27.8833,46.4026)">
            <path d="M100.559,135.106C117.604,135.106 130.199,140.689 130.199,150.973C130.199,161.256 117.684,155.501 100.639,155.501C83.594,155.501 68.431,161.256 68.431,150.973C68.431,140.689 83.513,135.106 100.559,135.106Z" style="fill:white;stroke:black;stroke-width:0.71px;"/>
        </g>
        <g transform="matrix(1.0479,0,0,0.761789,-6.032,22.2681)">
            <path d="M100.241,110.526C114.598,110.526 112.818,124.594 112.818,132.82C112.818,132.82 114.598,140.335 100.241,140.335C85.885,140.335 87.933,133.695 87.933,133.695C87.933,125.469 85.885,110.526 100.241,110.526Z" style="fill:white;stroke:black;stroke-width:0.55px;"/>
        </g>
        <g transform="matrix(1.08957,0,0,1.08233,-8.00827,-8.28622)">
            <ellipse cx="75.364" cy="89.83" rx="14.042" ry="9.371" style="fill:white;stroke:black;stroke-width:0.46px;"/>
        </g>
        <g transform="matrix(1.08957,0,0,1.08233,42.5272,-8.28622)">
            <ellipse cx="75.364" cy="89.83" rx="14.042" ry="9.371" style="fill:white;stroke:black;stroke-width:0.46px;"/>
        </g>
    </g>
</svg>
